<?xml version="1.0" encoding="UTF-8"?><svg id="uuid-074ce674-8292-48fa-b3e5-9b4f8deae7a6" xmlns="http://www.w3.org/2000/svg" viewBox="0 0 2754.86 1080"><defs><style>.uuid-15ee77f4-9640-441d-a99a-cc27338c5774{fill:#f2f2f2;}</style></defs><path class="uuid-15ee77f4-9640-441d-a99a-cc27338c5774" d="M251.27,604.49l104.06-15.48c24.08-3.44,31.82-15.48,31.82-30.1,0-30.1-23.22-55.04-71.38-55.04s-77.4,31.82-80.84,68.8l-101.48-21.5c6.88-66.22,67.94-139.32,181.46-139.32,134.16,0,184.04,75.68,184.04,160.82v208.12c0,22.36,2.58,52.46,5.16,67.08h-104.92c-2.58-11.18-4.3-34.4-4.3-50.74-21.5,33.54-61.92,62.78-124.7,62.78-90.3,0-145.34-61.06-145.34-127.28,0-75.68,55.9-117.82,126.42-128.14Zm135.88,72.24v-18.92l-95.46,14.62c-29.24,4.3-52.46,20.64-52.46,53.32,0,24.94,18.06,49.02,55.04,49.02,48.16,0,92.88-23.22,92.88-98.04Z"/><path class="uuid-15ee77f4-9640-441d-a99a-cc27338c5774" d="M816.29,538.27c-12.9-2.58-24.08-3.44-34.4-3.44-58.48,0-109.22,28.38-109.22,119.54v193.5h-114.38V424.75h110.94v62.78c25.8-55.9,84.28-66.22,120.4-66.22,9.46,0,18.06,.86,26.66,1.72v115.24Z"/><path class="uuid-15ee77f4-9640-441d-a99a-cc27338c5774" d="M1059.67,378.31v46.44h95.46v98.04h-95.46v325.08h-115.24v-325.08h-70.52v-98.04h70.52v-48.16c0-95.46,60.2-157.38,153.94-157.38,24.08,0,47.3,4.3,56.76,8.6v96.32c-6.02-1.72-17.2-4.3-36.12-4.3-25.8,0-59.34,11.18-59.34,58.48Z"/><path class="uuid-15ee77f4-9640-441d-a99a-cc27338c5774" d="M1331.43,635.46l-150.5-210.7h135.88c14.62,23.22,69.66,102.34,84.28,125.56l83.42-125.56h129.86l-147.92,207.26,153.08,215.86h-134.16l-88.58-129.86c-15.48,23.22-72.24,106.64-86.86,129.86h-129l150.5-212.42Z"/><path class="uuid-15ee77f4-9640-441d-a99a-cc27338c5774" d="M1710.69,697.38c43.86,0,79.12,35.26,79.12,78.26s-35.26,78.26-79.12,78.26-78.26-35.26-78.26-78.26,35.26-78.26,78.26-78.26Z"/><path class="uuid-15ee77f4-9640-441d-a99a-cc27338c5774" d="M1923.11,636.31c0,76.54,49.88,119.54,108.36,119.54s87.72-38.7,97.18-71.38l100.62,33.54c-18.92,70.52-85.14,142.76-197.8,142.76-124.7,0-222.74-94.6-222.74-224.46s96.32-224.46,219.3-224.46c115.24,0,180.6,71.38,198.66,142.76l-102.34,34.4c-10.32-35.26-36.98-71.38-93.74-71.38s-107.5,42.14-107.5,118.68Z"/><path class="uuid-15ee77f4-9640-441d-a99a-cc27338c5774" d="M2377.19,604.49l104.06-15.48c24.08-3.44,31.82-15.48,31.82-30.1,0-30.1-23.22-55.04-71.38-55.04s-77.4,31.82-80.84,68.8l-101.48-21.5c6.88-66.22,67.94-139.32,181.46-139.32,134.16,0,184.04,75.68,184.04,160.82v208.12c0,22.36,2.58,52.46,5.16,67.08h-104.92c-2.58-11.18-4.3-34.4-4.3-50.74-21.5,33.54-61.92,62.78-124.7,62.78-90.3,0-145.34-61.06-145.34-127.28,0-75.68,55.9-117.82,126.42-128.14Zm135.88,72.24v-18.92l-95.46,14.62c-29.24,4.3-52.46,20.64-52.46,53.32,0,24.94,18.06,49.02,55.04,49.02,48.16,0,92.88-23.22,92.88-98.04Z"/></svg>