<svg xmlns="http://www.w3.org/2000/svg" viewBox="0 0 200 120">
  <rect x="20" y="10" width="75" height="14" rx="3" fill="#e5e7eb"/>
  <rect x="98" y="10" width="82" height="14" rx="3" fill="#e5e7eb"/>
  <rect x="18" y="24" width="164" height="74" rx="16" fill="#374151"/>
  <rect x="28" y="32" width="144" height="58" rx="6" fill="#1f2937"/>
  <rect x="36" y="40" width="128" height="42" rx="3" fill="#111827"/>
  <rect x="40" y="44" width="6" height="6" rx="1" fill="#22c55e" opacity="0.8"/>
  <rect x="50" y="44" width="6" height="6" rx="1" fill="#22c55e" opacity="0.5"/>
  <rect x="40" y="54" width="6" height="6" rx="1" fill="#22c55e" opacity="0.3"/>
  <rect x="50" y="54" width="6" height="6" rx="1" fill="#22c55e" opacity="0.6"/>
  <rect x="136" y="44" width="14" height="14" rx="7" fill="#ef4444" opacity="0.7"/>
  <rect x="154" y="48" width="10" height="10" rx="5" fill="#3b82f6" opacity="0.7"/>
  <rect x="62" y="74" width="18" height="8" rx="2" fill="#4b5563"/>
  <rect x="120" y="74" width="18" height="8" rx="2" fill="#4b5563"/>
  <rect x="60" y="72" width="8" height="12" rx="3" fill="#6b7280"/>
  <rect x="132" y="72" width="8" height="12" rx="3" fill="#6b7280"/>
  <rect x="10" y="18" width="24" height="16" rx="4" fill="#4b5563"/>
  <rect x="166" y="18" width="24" height="16" rx="4" fill="#4b5563"/>
  <rect x="14" y="12" width="16" height="8" rx="2" fill="#6b7280"/>
  <rect x="170" y="12" width="16" height="8" rx="2" fill="#6b7280"/>
</svg>
