<svg xmlns="http://www.w3.org/2000/svg" viewBox="0 0 16 16">
  <rect x="0" y="0" width="16" height="16" rx="2" fill="#1e1e1e"/>
  <rect x="1" y="1" width="14" height="14" rx="2" fill="#252526"/>
  <rect x="2" y="2" width="12" height="1" fill="#3c3c3c"/>
  <rect x="2" y="2" width="1" height="1" fill="#ff5f56"/>
  <rect x="4" y="2" width="1" height="1" fill="#ffbd2e"/>
  <rect x="6" y="2" width="1" height="1" fill="#27c93f"/>
  <rect x="3" y="5" width="2" height="1" fill="#569cd6"/>
  <rect x="3" y="7" width="1" height="1" fill="#dcdcaa"/>
  <rect x="5" y="7" width="1" height="1" fill="#ce9178"/>
  <rect x="7" y="7" width="1" height="1" fill="#dcdcaa"/>
  <rect x="9" y="7" width="3" height="1" fill="#ce9178"/>
  <rect x="4" y="9" width="1" height="1" fill="#dcdcaa"/>
  <rect x="6" y="9" width="1" height="1" fill="#569cd6"/>
  <rect x="3" y="11" width="1" height="1" fill="#d4d4d4"/>
  <rect x="5" y="11" width="1" height="1" fill="#d4d4d4"/>
  <rect x="3" y="13" width="3" height="1" fill="#6a9955"/>
</svg>
