<svg width="720" height="352" viewBox="0 0 720 352" xmlns="http://www.w3.org/2000/svg" role="img" font-family="'Segoe UI',-apple-system,BlinkMacSystemFont,Roboto,Helvetica,Arial,sans-serif">
<svg x="24" y="22" width="21" height="21" viewBox="0 0 16 16"><path fill="#e6edf3" fill-rule="evenodd" d="M8 0C3.58 0 0 3.58 0 8c0 3.54 2.29 6.53 5.47 7.59.4.07.55-.17.55-.38 0-.19-.01-.82-.01-1.49-2.01.37-2.53-.49-2.69-.94-.09-.23-.48-.94-.82-1.13-.28-.15-.68-.52-.01-.53.63-.01 1.08.58 1.23.82.72 1.21 1.87.87 2.33.66.07-.52.28-.87.51-1.07-1.78-.2-3.64-.89-3.64-3.95 0-.87.31-1.59.82-2.15-.08-.2-.36-1.02.08-2.12 0 0 .67-.21 2.2.82.64-.18 1.32-.27 2-.27.68 0 1.36.09 2 .27 1.53-1.04 2.2-.82 2.2-.82.44 1.1.16 1.92.08 2.12.51.56.82 1.27.82 2.15 0 3.07-1.87 3.75-3.65 3.95.29.25.54.73.54 1.48 0 1.07-.01 1.93-.01 2.2 0 .21.15.46.55.38A8.013 8.013 0 0 0 16 8c0-4.42-3.58-8-8-8z"/></svg>
<text x="54" y="39" font-size="15.5" font-weight="600" fill="#9198a1">/ <tspan fill="#e6edf3" font-weight="700">@arfazca</tspan></text>
<text x="696" y="38" text-anchor="end" font-size="10.5" fill="#6e7681" letter-spacing="0.3">all private &amp; public repos</text>
<line x1="24" y1="50" x2="696" y2="50" stroke="#262c34" stroke-width="1"/>
<text x="24" y="90" font-size="20" font-weight="700" fill="#e6edf3" letter-spacing="-0.4">13</text>
<text x="24" y="103" font-size="8.5" font-weight="600" fill="#9198a1" letter-spacing="0.7">STARS</text>
<text x="24" y="135" font-size="20" font-weight="700" fill="#e6edf3" letter-spacing="-0.4">17.8M</text>
<text x="24" y="148" font-size="8.5" font-weight="600" fill="#9198a1" letter-spacing="0.7">LINES CHANGED</text>
<text x="24" y="180" font-size="20" font-weight="700" fill="#e6edf3" letter-spacing="-0.4">4,221</text>
<text x="24" y="193" font-size="8.5" font-weight="600" fill="#9198a1" letter-spacing="0.7">TOTAL CONTRIBUTIONS</text>
<text x="24" y="225" font-size="20" font-weight="700" fill="#e6edf3" letter-spacing="-0.4">0<tspan font-size="10.5" font-weight="600" fill="#9198a1" dx="3"> days</tspan></text>
<text x="24" y="238" font-size="8.5" font-weight="600" fill="#9198a1" letter-spacing="0.7">CURRENT STREAK</text>
<text x="206" y="90" font-size="20" font-weight="700" fill="#e6edf3" letter-spacing="-0.4">33</text>
<text x="206" y="103" font-size="8.5" font-weight="600" fill="#9198a1" letter-spacing="0.7">PUBLIC REPOS</text>
<text x="206" y="135" font-size="20" font-weight="700" fill="#e6edf3" letter-spacing="-0.4">33</text>
<text x="206" y="148" font-size="8.5" font-weight="600" fill="#9198a1" letter-spacing="0.7">PRIVATE REPOS</text>
<text x="206" y="180" font-size="20" font-weight="700" fill="#e6edf3" letter-spacing="-0.4">12</text>
<text x="206" y="193" font-size="8.5" font-weight="600" fill="#9198a1" letter-spacing="0.7">COLLABORATORS</text>
<text x="206" y="225" font-size="20" font-weight="700" fill="#e6edf3" letter-spacing="-0.4">22<tspan font-size="10.5" font-weight="600" fill="#9198a1" dx="3"> days</tspan></text>
<text x="206" y="238" font-size="8.5" font-weight="600" fill="#9198a1" letter-spacing="0.7">LONGEST STREAK</text>
<circle cx="556" cy="160" r="80" fill="none" stroke="#7678f3" stroke-width="44" stroke-dasharray="138.73 363.92" stroke-dashoffset="-0.00" transform="rotate(-90 556 160)"/>
<circle cx="556" cy="160" r="80" fill="none" stroke="#ee5ea5" stroke-width="44" stroke-dasharray="127.67 374.98" stroke-dashoffset="-138.73" transform="rotate(-90 556 160)"/>
<circle cx="556" cy="160" r="80" fill="none" stroke="#30c1b1" stroke-width="44" stroke-dasharray="116.62 386.04" stroke-dashoffset="-266.41" transform="rotate(-90 556 160)"/>
<circle cx="556" cy="160" r="80" fill="none" stroke="#f6aa28" stroke-width="44" stroke-dasharray="48.07 454.58" stroke-dashoffset="-383.02" transform="rotate(-90 556 160)"/>
<circle cx="556" cy="160" r="80" fill="none" stroke="#9970f7" stroke-width="44" stroke-dasharray="23.72 478.94" stroke-dashoffset="-431.10" transform="rotate(-90 556 160)"/>
<circle cx="556" cy="160" r="80" fill="none" stroke="#f15a5a" stroke-width="44" stroke-dasharray="11.26 491.40" stroke-dashoffset="-454.82" transform="rotate(-90 556 160)"/>
<circle cx="556" cy="160" r="80" fill="none" stroke="#2dc190" stroke-width="44" stroke-dasharray="11.22 491.44" stroke-dashoffset="-466.07" transform="rotate(-90 556 160)"/>
<circle cx="556" cy="160" r="80" fill="none" stroke="#5391f7" stroke-width="44" stroke-dasharray="9.22 493.44" stroke-dashoffset="-477.29" transform="rotate(-90 556 160)"/>
<circle cx="556" cy="160" r="80" fill="none" stroke="#fa8432" stroke-width="44" stroke-dasharray="6.34 496.32" stroke-dashoffset="-486.51" transform="rotate(-90 556 160)"/>
<circle cx="556" cy="160" r="80" fill="none" stroke="#24bfd9" stroke-width="44" stroke-dasharray="4.54 498.12" stroke-dashoffset="-492.85" transform="rotate(-90 556 160)"/>
<circle cx="556" cy="160" r="80" fill="none" stroke="#b269f8" stroke-width="44" stroke-dasharray="2.01 500.64" stroke-dashoffset="-497.39" transform="rotate(-90 556 160)"/>
<circle cx="556" cy="160" r="80" fill="none" stroke="#93d232" stroke-width="44" stroke-dasharray="1.97 500.68" stroke-dashoffset="-499.40" transform="rotate(-90 556 160)"/>
<circle cx="556" cy="160" r="80" fill="none" stroke="#e5385e" stroke-width="44" stroke-dasharray="1.29 501.37" stroke-dashoffset="-501.37" transform="rotate(-90 556 160)"/>
<text x="556" y="159" text-anchor="middle" font-size="16" font-weight="800"><tspan fill="#7678f3">C</tspan><tspan fill="#9198a1"> and </tspan><tspan fill="#ee5ea5">C++</tspan></text>
<text x="556" y="179" text-anchor="middle" font-size="11" font-weight="600" fill="#9198a1">53.0% of code</text>
<line x1="24" y1="262" x2="696" y2="262" stroke="#262c34" stroke-width="1"/>
<text x="24" y="278" font-size="8.5" font-weight="600" fill="#6e7681" letter-spacing="0.8">SHARE OF CODE</text>
<circle cx="28.50" cy="306.00" r="4.5" fill="#7678f3"/>
<text x="40.00" y="310.00" font-size="11" font-weight="600" fill="#e6edf3">C</text>
<text x="52.05" y="310.00" font-size="11" fill="#9198a1">27.6%</text>
<circle cx="102.80" cy="306.00" r="4.5" fill="#ee5ea5"/>
<text x="114.30" y="310.00" font-size="11" font-weight="600" fill="#e6edf3">C++</text>
<text x="138.45" y="310.00" font-size="11" fill="#9198a1">25.4%</text>
<circle cx="189.20" cy="306.00" r="4.5" fill="#30c1b1"/>
<text x="200.70" y="310.00" font-size="11" font-weight="600" fill="#e6edf3">TypeScript</text>
<text x="267.20" y="310.00" font-size="11" fill="#9198a1">23.2%</text>
<circle cx="317.95" cy="306.00" r="4.5" fill="#f6aa28"/>
<text x="329.45" y="310.00" font-size="11" font-weight="600" fill="#e6edf3">Python</text>
<text x="371.75" y="310.00" font-size="11" fill="#9198a1">9.6%</text>
<circle cx="416.45" cy="306.00" r="4.5" fill="#9970f7"/>
<text x="427.95" y="310.00" font-size="11" font-weight="600" fill="#e6edf3">Shell</text>
<text x="464.20" y="310.00" font-size="11" fill="#9198a1">4.7%</text>
<circle cx="508.90" cy="306.00" r="4.5" fill="#f15a5a"/>
<text x="520.40" y="310.00" font-size="11" font-weight="600" fill="#e6edf3">C#</text>
<text x="538.50" y="310.00" font-size="11" fill="#9198a1">2.2%</text>
<circle cx="583.20" cy="306.00" r="4.5" fill="#2dc190"/>
<text x="594.70" y="310.00" font-size="11" font-weight="600" fill="#e6edf3">Assembly</text>
<text x="649.10" y="310.00" font-size="11" fill="#9198a1">2.2%</text>
<circle cx="28.50" cy="332.00" r="4.5" fill="#5391f7"/>
<text x="40.00" y="336.00" font-size="11" font-weight="600" fill="#e6edf3">PowerShell</text>
<text x="106.50" y="336.00" font-size="11" fill="#9198a1">1.8%</text>
<circle cx="151.20" cy="332.00" r="4.5" fill="#fa8432"/>
<text x="162.70" y="336.00" font-size="11" font-weight="600" fill="#e6edf3">Objective-C</text>
<text x="235.25" y="336.00" font-size="11" fill="#9198a1">1.3%</text>
<circle cx="279.95" cy="332.00" r="4.5" fill="#24bfd9"/>
<text x="291.45" y="336.00" font-size="11" font-weight="600" fill="#e6edf3">Rust</text>
<text x="321.65" y="336.00" font-size="11" fill="#9198a1">0.9%</text>
<circle cx="366.35" cy="332.00" r="4.5" fill="#b269f8"/>
<text x="377.85" y="336.00" font-size="11" font-weight="600" fill="#e6edf3">Java</text>
<text x="408.05" y="336.00" font-size="11" fill="#9198a1">0.4%</text>
<circle cx="452.75" cy="332.00" r="4.5" fill="#93d232"/>
<text x="464.25" y="336.00" font-size="11" font-weight="600" fill="#e6edf3">Swift</text>
<text x="500.50" y="336.00" font-size="11" fill="#9198a1">0.4%</text>
<circle cx="545.20" cy="332.00" r="4.5" fill="#e5385e"/>
<text x="556.70" y="336.00" font-size="11" font-weight="600" fill="#e6edf3">BitBake</text>
<text x="605.05" y="336.00" font-size="11" fill="#9198a1">0.3%</text>
<rect x="0.75" y="0.75" width="718.50" height="350.50" rx="20" ry="20" fill="none" stroke="#30363d" stroke-width="1.5"/>
</svg>