<?xml version="1.0" encoding="utf-8"?>
<!-- Generator: Adobe Illustrator 26.1.0, SVG Export Plug-In . SVG Version: 6.00 Build 0)  -->
<svg version="1.1" id="chart-16c151f5-7e1f-4554-92f7-45425be4076c"
	 xmlns="http://www.w3.org/2000/svg" xmlns:xlink="http://www.w3.org/1999/xlink" x="0px" y="0px" viewBox="0 0 800 600"
	 style="enable-background:new 0 0 800 600;" xml:space="preserve">
<style type="text/css">
	.st0{display:none;}
	.st1{fill:#F44336;fill-opacity:0.7;stroke:#F44336;stroke-opacity:0.8;}
	.st2{fill:#3F51B5;fill-opacity:0.7;stroke:#3F51B5;stroke-opacity:0.8;}
	.st3{fill:#009688;fill-opacity:0.7;stroke:#009688;stroke-opacity:0.8;}
	.st4{fill:#FFC107;fill-opacity:0.7;stroke:#FFC107;stroke-opacity:0.8;}
	.st5{fill:#FF5722;fill-opacity:0.7;stroke:#FF5722;stroke-opacity:0.8;}
	.st6{fill:#9C27B0;fill-opacity:0.7;stroke:#9C27B0;stroke-opacity:0.8;}
	.st7{fill:#03A9F4;fill-opacity:0.7;stroke:#03A9F4;stroke-opacity:0.8;}
	.st8{fill:#8BC34A;fill-opacity:0.7;stroke:#8BC34A;stroke-opacity:0.8;}
	.st9{fill:#FF9800;fill-opacity:0.7;stroke:#FF9800;stroke-opacity:0.8;}
	.st10{fill:#E91E63;fill-opacity:0.7;stroke:#E91E63;stroke-opacity:0.8;}
	.st11{fill:#2196F3;fill-opacity:0.7;stroke:#2196F3;stroke-opacity:0.8;}
	.st12{fill:#4CAF50;fill-opacity:0.7;stroke:#4CAF50;stroke-opacity:0.8;}
	.st13{fill:#FFEB3B;fill-opacity:0.7;stroke:#FFEB3B;stroke-opacity:0.8;}
	.st14{fill:#673AB7;fill-opacity:0.7;stroke:#673AB7;stroke-opacity:0.8;}
	.st15{fill:#00BCD4;fill-opacity:0.7;stroke:#00BCD4;stroke-opacity:0.8;}
	.st16{fill:#CDDC39;fill-opacity:0.7;stroke:#CDDC39;stroke-opacity:0.8;}
	.st17{fill:#9E9E9E;fill-opacity:0.7;stroke:#9E9E9E;stroke-opacity:0.8;}
	.st18{font-family:'Menlo-Regular';}
	.st19{font-size:16px;}
	.st20{opacity:0;}
	.st21{fill-opacity:0.95;}
	.st22{font-size:14px;}
</style>
<defs>
	<script  type="text/javascript">
		window.pygal = window.pygal || {};window.pygal.config = window.pygal.config || {};window.pygal.config[&apos;16c151f5-7e1f-4554-92f7-45425be4076c&apos;] = {&quot;allow_interruptions&quot;: false, &quot;box_mode&quot;: &quot;extremes&quot;, &quot;classes&quot;: [&quot;pygal-chart&quot;], &quot;css&quot;: [&quot;file://style.css&quot;, &quot;file://graph.css&quot;], &quot;defs&quot;: [], &quot;disable_xml_declaration&quot;: false, &quot;dots_size&quot;: 2.5, &quot;dynamic_print_values&quot;: false, &quot;explicit_size&quot;: false, &quot;fill&quot;: false, &quot;force_uri_protocol&quot;: &quot;https&quot;, &quot;formatter&quot;: null, &quot;half_pie&quot;: false, &quot;height&quot;: 600, &quot;include_x_axis&quot;: false, &quot;inner_radius&quot;: 0, &quot;interpolate&quot;: null, &quot;interpolation_parameters&quot;: {}, &quot;interpolation_precision&quot;: 250, &quot;inverse_y_axis&quot;: false, &quot;js&quot;: [&quot;//kozea.github.io/pygal.js/2.0.x/pygal-tooltips.min.js&quot;], &quot;legend_at_bottom&quot;: false, &quot;legend_at_bottom_columns&quot;: null, &quot;legend_box_size&quot;: 12, &quot;logarithmic&quot;: false, &quot;margin&quot;: 20, &quot;margin_bottom&quot;: null, &quot;margin_left&quot;: null, &quot;margin_right&quot;: null, &quot;margin_top&quot;: null, &quot;max_scale&quot;: 16, &quot;min_scale&quot;: 4, &quot;missing_value_fill_truncation&quot;: &quot;x&quot;, &quot;no_data_text&quot;: &quot;No data&quot;, &quot;no_prefix&quot;: false, &quot;order_min&quot;: null, &quot;pretty_print&quot;: false, &quot;print_labels&quot;: false, &quot;print_values&quot;: false, &quot;print_values_position&quot;: &quot;center&quot;, &quot;print_zeroes&quot;: true, &quot;range&quot;: null, &quot;rounded_bars&quot;: null, &quot;secondary_range&quot;: null, &quot;show_dots&quot;: true, &quot;show_legend&quot;: true, &quot;show_minor_x_labels&quot;: true, &quot;show_minor_y_labels&quot;: true, &quot;show_only_major_dots&quot;: false, &quot;show_x_guides&quot;: false, &quot;show_x_labels&quot;: true, &quot;show_y_guides&quot;: true, &quot;show_y_labels&quot;: true, &quot;spacing&quot;: 10, &quot;stack_from_top&quot;: false, &quot;strict&quot;: false, &quot;stroke&quot;: true, &quot;stroke_style&quot;: null, &quot;style&quot;: {&quot;background&quot;: &quot;rgba(249, 249, 249, 1)&quot;, &quot;ci_colors&quot;: [], &quot;colors&quot;: [&quot;#F44336&quot;, &quot;#3F51B5&quot;, &quot;#009688&quot;, &quot;#FFC107&quot;, &quot;#FF5722&quot;, &quot;#9C27B0&quot;, &quot;#03A9F4&quot;, &quot;#8BC34A&quot;, &quot;#FF9800&quot;, &quot;#E91E63&quot;, &quot;#2196F3&quot;, &quot;#4CAF50&quot;, &quot;#FFEB3B&quot;, &quot;#673AB7&quot;, &quot;#00BCD4&quot;, &quot;#CDDC39&quot;, &quot;#9E9E9E&quot;, &quot;#607D8B&quot;], &quot;dot_opacity&quot;: &quot;1&quot;, &quot;font_family&quot;: &quot;Consolas, \&quot;Liberation Mono\&quot;, Menlo, Courier, monospace&quot;, &quot;foreground&quot;: &quot;rgba(0, 0, 0, .87)&quot;, &quot;foreground_strong&quot;: &quot;rgba(0, 0, 0, 1)&quot;, &quot;foreground_subtle&quot;: &quot;rgba(0, 0, 0, .54)&quot;, &quot;guide_stroke_color&quot;: &quot;black&quot;, &quot;guide_stroke_dasharray&quot;: &quot;4,4&quot;, &quot;label_font_family&quot;: &quot;Consolas, \&quot;Liberation Mono\&quot;, Menlo, Courier, monospace&quot;, &quot;label_font_size&quot;: 10, &quot;legend_font_family&quot;: &quot;Consolas, \&quot;Liberation Mono\&quot;, Menlo, Courier, monospace&quot;, &quot;legend_font_size&quot;: 14, &quot;major_guide_stroke_color&quot;: &quot;black&quot;, &quot;major_guide_stroke_dasharray&quot;: &quot;6,6&quot;, &quot;major_label_font_family&quot;: &quot;Consolas, \&quot;Liberation Mono\&quot;, Menlo, Courier, monospace&quot;, &quot;major_label_font_size&quot;: 10, &quot;no_data_font_family&quot;: &quot;Consolas, \&quot;Liberation Mono\&quot;, Menlo, Courier, monospace&quot;, &quot;no_data_font_size&quot;: 64, &quot;opacity&quot;: &quot;.7&quot;, &quot;opacity_hover&quot;: &quot;.8&quot;, &quot;plot_background&quot;: &quot;rgba(255, 255, 255, 1)&quot;, &quot;stroke_opacity&quot;: &quot;.8&quot;, &quot;stroke_opacity_hover&quot;: &quot;.9&quot;, &quot;stroke_width&quot;: &quot;1&quot;, &quot;stroke_width_hover&quot;: &quot;4&quot;, &quot;title_font_family&quot;: &quot;Consolas, \&quot;Liberation Mono\&quot;, Menlo, Courier, monospace&quot;, &quot;title_font_size&quot;: 16, &quot;tooltip_font_family&quot;: &quot;Consolas, \&quot;Liberation Mono\&quot;, Menlo, Courier, monospace&quot;, &quot;tooltip_font_size&quot;: 14, &quot;transition&quot;: &quot;150ms&quot;, &quot;value_background&quot;: &quot;rgba(229, 229, 229, 1)&quot;, &quot;value_colors&quot;: [], &quot;value_font_family&quot;: &quot;Consolas, \&quot;Liberation Mono\&quot;, Menlo, Courier, monospace&quot;, &quot;value_font_size&quot;: 16, &quot;value_label_font_family&quot;: &quot;Consolas, \&quot;Liberation Mono\&quot;, Menlo, Courier, monospace&quot;, &quot;value_label_font_size&quot;: 10}, &quot;title&quot;: &quot;GitHub Language Statistics&quot;, &quot;tooltip_border_radius&quot;: 0, &quot;tooltip_fancy_mode&quot;: true, &quot;truncate_label&quot;: null, &quot;truncate_legend&quot;: null, &quot;width&quot;: 800, &quot;x_label_rotation&quot;: 0, &quot;x_labels&quot;: null, &quot;x_labels_major&quot;: null, &quot;x_labels_major_count&quot;: null, &quot;x_labels_major_every&quot;: null, &quot;x_title&quot;: null, &quot;xrange&quot;: null, &quot;y_label_rotation&quot;: 0, &quot;y_labels&quot;: null, &quot;y_labels_major&quot;: null, &quot;y_labels_major_count&quot;: null, &quot;y_labels_major_every&quot;: null, &quot;y_title&quot;: null, &quot;zero&quot;: 0, &quot;legends&quot;: [&quot;Shell&quot;, &quot;C&quot;, &quot;Java&quot;, &quot;Assembly&quot;, &quot;C++&quot;, &quot;Makefile&quot;, &quot;Batchfile&quot;, &quot;Swift&quot;, &quot;JavaScript&quot;, &quot;HTML&quot;, &quot;CSS&quot;, &quot;SCSS&quot;, &quot;Python&quot;, &quot;CMake&quot;, &quot;Lua&quot;, &quot;GLSL&quot;, &quot;Faust&quot;]}
		</script>
	<script  type="text/javascript"></script>
</defs>
<g>
	<rect class="st0" width="800" height="600"/>
	<g transform="translate(126, 46)">
		<rect class="st0" width="654" height="534"/>
		<g>
			<g>
				<g>
					<path class="st1" d="M327,26.7c1.1,0,2.2,0,3.3,0L327,267l0,0V26.7z"/>
					<desc  class="value">29525</desc>
					<desc  class="x centered">327.825256944448</desc>
					<desc  class="y centered">146.85283419499385</desc>
				</g>
			</g>
		</g>
		<g>
			<g>
				<g>
					<path class="st2" d="M330.3,26.7c41.2,0.6,81.6,11.7,117.2,32.4L327,267l0,0L330.3,26.7z"/>
					<desc  class="value">1099885</desc>
					<desc  class="x centered">359.0027628565734</desc>
					<desc  class="y centered">151.19047677524128</desc>
				</g>
			</g>
		</g>
		<g>
			<g>
				<g>
					<path class="st3" d="M447.5,59.1c23.2,13.5,44,30.7,61.5,51L327,267l0,0L447.5,59.1z"/>
					<desc  class="value">718154</desc>
					<desc  class="x centered">403.71640697879104</desc>
					<desc  class="y centered">174.53046231182668</desc>
				</g>
			</g>
		</g>
		<g>
			<g>
				<g>
					<path class="st4" d="M509.1,110.2c5.4,6.3,10.5,12.9,15.2,19.7L327,267l0,0L509.1,110.2z"/>
					<desc  class="value">222629</desc>
					<desc  class="x centered">421.96316136496756</desc>
					<desc  class="y centered">193.39279598048074</desc>
				</g>
			</g>
		</g>
		<g>
			<g>
				<g>
					<path class="st5" d="M524.3,129.8c75.8,109,48.9,258.7-60.1,334.5c-25.2,17.6-53.6,30.1-83.6,37L327,267l0,0L524.3,129.8z"/>
					<desc  class="value">4198571</desc>
					<desc  class="x centered">439.0558387426857</desc>
					<desc  class="y centered">310.35333324755106</desc>
				</g>
			</g>
		</g>
		<g>
			<g>
				<g>
					<path class="st6" d="M380.6,501.2c-0.9,0.2-1.7,0.4-2.6,0.6L327,267l0,0L380.6,501.2z"/>
					<desc  class="value">23594</desc>
					<desc  class="x centered">353.1511076687628</desc>
					<desc  class="y centered">384.26952744723064</desc>
				</g>
			</g>
		</g>
		<g>
			<g>
				<g>
					<path class="st7" d="M378,501.8c-0.1,0-0.1,0-0.2,0L327,267l0,0L378,501.8z"/>
					<desc  class="value">1702</desc>
					<desc  class="x centered">352.46055260635194</desc>
					<desc  class="y centered">384.4213897080902</desc>
				</g>
			</g>
		</g>
		<g>
			<g>
				<g>
					<path class="st8" d="M377.8,501.9c-0.8,0.2-1.7,0.4-2.5,0.5L327,267l0,0L377.8,501.9z"/>
					<desc  class="value">23205</desc>
					<desc  class="x centered">351.7797552476492</desc>
					<desc  class="y centered">384.56694361029633</desc>
				</g>
			</g>
		</g>
		<g>
			<g>
				<g>
					<path class="st9" d="M375.3,502.4c-46.5,9.5-94.8,5.1-138.7-12.8L327,267l0,0L375.3,502.4z"/>
					<desc  class="value">1264343</desc>
					<desc  class="x centered">315.985661476221</desc>
					<desc  class="y centered">386.6440840446514</desc>
				</g>
			</g>
		</g>
		<g>
			<g>
				<g>
					<path class="st10" d="M236.5,489.6c-123-50-182.1-190.1-132.2-313.1C136.9,96.5,209.9,40,295.6,28.8L327,267l0,0L236.5,489.6z"
						/>
					<desc  class="value">5641152</desc>
					<desc  class="x centered">207.82493972572348</desc>
					<desc  class="y centered">251.7249383430849</desc>
				</g>
			</g>
		</g>
		<g>
			<g>
				<g>
					<path class="st11" d="M295.6,28.8c4.3-0.6,8.6-1,13-1.4L327,267l0,0L295.6,28.8z"/>
					<desc  class="value">116821</desc>
					<desc  class="x centered">314.5508014451282</desc>
					<desc  class="y centered">147.49669479323438</desc>
				</g>
			</g>
		</g>
		<g>
			<g>
				<g>
					<path class="st12" d="M308.6,27.4c1.1-0.1,2.1-0.2,3.2-0.2L327,267l0,0L308.6,27.4z"/>
					<desc  class="value">28496</desc>
					<desc  class="x centered">318.5970883305772</desc>
					<desc  class="y centered">147.14419673843122</desc>
				</g>
			</g>
		</g>
		<g>
			<g>
				<g>
					<path class="st13" d="M311.8,27.2c1.7-0.1,3.3-0.2,5-0.3L327,267l0,0L311.8,27.2z"/>
					<desc  class="value">44724</desc>
					<desc  class="x centered">320.6397947709205</desc>
					<desc  class="y centered">147.01845854697484</desc>
				</g>
			</g>
		</g>
		<g>
			<g>
				<g>
					<path class="st14" d="M316.8,26.9c2.9-0.1,5.7-0.2,8.6-0.2L327,267l0,0L316.8,26.9z"/>
					<desc  class="value">77000</desc>
					<desc  class="x centered">324.03946968588076</desc>
					<desc  class="y centered">146.8864796941694</desc>
				</g>
			</g>
		</g>
		<g>
			<g>
				<g>
					<path class="st15" d="M325.4,26.7c0.2,0,0.5,0,0.7,0L327,267l0,0L325.4,26.7z"/>
					<desc  class="value">6500</desc>
					<desc  class="x centered">326.3731100996941</desc>
					<desc  class="y centered">146.85163542913745</desc>
				</g>
			</g>
		</g>
		<g>
			<g>
				<g>
					<path class="st16" d="M326.1,26.7c0.2,0,0.3,0,0.5,0L327,267l0,0L326.1,26.7z"/>
					<desc  class="value">4352</desc>
					<desc  class="x centered">326.6764356322273</desc>
					<desc  class="y centered">146.85043568077367</desc>
				</g>
			</g>
		</g>
		<g>
			<g>
				<g>
					<path class="st17" d="M326.6,26.7c0.1,0,0.3,0,0.4,0V267l0,0L326.6,26.7z"/>
					<desc  class="value">3612</desc>
					<desc  class="x centered">326.89903975712633</desc>
					<desc  class="y centered">146.8500424176964</desc>
				</g>
			</g>
		</g>
	</g>
	<g>
		<text transform="matrix(1 0 0 1 274.7734 26)" class="st18 st19">GitHub Language Statistics</text>
	</g>
	<g transform="translate(126, 46)">
	</g>
	<g transform="translate(126, 46)">
	</g>
	<g transform="translate(126, 46)">
		<g transform="translate(0 0)" class="st20">
			<polygon class="st21" points="0,0 0,0 0,0 			"/>
		</g>
	</g>
	<g transform="translate(10, 56)">
		<g id="activate-serie-0">
			<rect y="1" class="st1" width="12" height="12"/>
			<text transform="matrix(1 0 0 1 17 11.2)" class="st18 st22">Shell</text>
		</g>
		<g id="activate-serie-1">
			<rect y="22" class="st2" width="12" height="12"/>
			<text transform="matrix(1 0 0 1 17 32.2)" class="st18 st22">C</text>
		</g>
		<g id="activate-serie-2">
			<rect y="43" class="st3" width="12" height="12"/>
			<text transform="matrix(1 0 0 1 17 53.2)" class="st18 st22">Java</text>
		</g>
		<g id="activate-serie-3">
			<rect y="64" class="st4" width="12" height="12"/>
			<text transform="matrix(1 0 0 1 17 74.2)" class="st18 st22">Assembly</text>
		</g>
		<g id="activate-serie-4">
			<rect y="85" class="st5" width="12" height="12"/>
			<text transform="matrix(1 0 0 1 17 95.2)" class="st18 st22">C++</text>
		</g>
		<g id="activate-serie-5">
			<rect y="106" class="st6" width="12" height="12"/>
			<text transform="matrix(1 0 0 1 17 116.2)" class="st18 st22">Makefile</text>
		</g>
		<g id="activate-serie-6">
			<rect y="127" class="st7" width="12" height="12"/>
			<text transform="matrix(1 0 0 1 17 137.2)" class="st18 st22">Batchfile</text>
		</g>
		<g id="activate-serie-7">
			<rect y="148" class="st8" width="12" height="12"/>
			<text transform="matrix(1 0 0 1 17 158.2)" class="st18 st22">Swift</text>
		</g>
		<g id="activate-serie-8">
			<rect y="169" class="st9" width="12" height="12"/>
			<text transform="matrix(1 0 0 1 17 179.2)" class="st18 st22">JavaScript</text>
		</g>
		<g id="activate-serie-9">
			<rect y="190" class="st10" width="12" height="12"/>
			<text transform="matrix(1 0 0 1 17 200.2)" class="st18 st22">HTML</text>
		</g>
		<g id="activate-serie-10">
			<rect y="211" class="st11" width="12" height="12"/>
			<text transform="matrix(1 0 0 1 17 221.2)" class="st18 st22">CSS</text>
		</g>
		<g id="activate-serie-11">
			<rect y="232" class="st12" width="12" height="12"/>
			<text transform="matrix(1 0 0 1 17 242.2)" class="st18 st22">SCSS</text>
		</g>
		<g id="activate-serie-12">
			<rect y="253" class="st13" width="12" height="12"/>
			<text transform="matrix(1 0 0 1 17 263.2)" class="st18 st22">Python</text>
		</g>
		<g id="activate-serie-13">
			<rect y="274" class="st14" width="12" height="12"/>
			<text transform="matrix(1 0 0 1 17 284.2)" class="st18 st22">CMake</text>
		</g>
		<g id="activate-serie-14">
			<rect y="295" class="st15" width="12" height="12"/>
			<text transform="matrix(1 0 0 1 17 305.2)" class="st18 st22">Lua</text>
		</g>
		<g id="activate-serie-15">
			<rect y="316" class="st16" width="12" height="12"/>
			<text transform="matrix(1 0 0 1 17 326.2)" class="st18 st22">GLSL</text>
		</g>
		<g id="activate-serie-16">
			<rect y="337" class="st17" width="12" height="12"/>
			<text transform="matrix(1 0 0 1 17 347.2)" class="st18 st22">Faust</text>
		</g>
	</g>
	<g transform="translate(790, 56)">
	</g>
</g>
</svg>
