<svg xmlns="http://www.w3.org/2000/svg" width="1200" height="142" viewBox="0 0 1200 142" role="img" aria-label="The day's weather, hour by hour"><defs><clipPath id="t"><rect y="32" width="1200" height="44" rx="9"/></clipPath></defs><g clip-path="url(#t)"><rect x="0.00" y="32" width="10.17" height="44" fill="#34588c"/><rect x="11.67" y="32" width="26.83" height="44" fill="#5e8cc4"/><rect x="40.00" y="32" width="31.00" height="44" fill="#98a3b3"/><rect x="72.50" y="32" width="9.33" height="44" fill="#5e8cc4"/><rect x="83.33" y="32" width="16.83" height="44" fill="#34588c"/><rect x="101.67" y="32" width="7.67" height="44" fill="#5e8cc4"/><rect x="110.83" y="32" width="7.67" height="44" fill="#98a3b3"/><rect x="120.00" y="32" width="11.00" height="44" fill="#5e8cc4"/><rect x="132.50" y="32" width="17.67" height="44" fill="#34588c"/><rect x="151.67" y="32" width="15.17" height="44" fill="#5e8cc4"/><rect x="168.33" y="32" width="12.67" height="44" fill="#98a3b3"/><rect x="182.50" y="32" width="11.00" height="44" fill="#5e8cc4"/><rect x="195.00" y="32" width="16.83" height="44" fill="#34588c"/><rect x="213.33" y="32" width="9.33" height="44" fill="#5e8cc4"/><rect x="224.17" y="32" width="12.67" height="44" fill="#34588c"/><rect x="238.33" y="32" width="6.83" height="44" fill="#5e8cc4"/><rect x="246.67" y="32" width="16.83" height="44" fill="#34588c"/><rect x="265.00" y="32" width="21.83" height="44" fill="#5e8cc4"/><rect x="288.33" y="32" width="19.33" height="44" fill="#98a3b3"/><rect x="309.17" y="32" width="22.67" height="44" fill="#7fa3cf"/><rect x="333.33" y="32" width="7.67" height="44" fill="#98a3b3"/><rect x="342.50" y="32" width="15.17" height="44" fill="#5e8cc4"/><rect x="359.17" y="32" width="19.33" height="44" fill="#98a3b3"/><rect x="380.00" y="32" width="84.33" height="44" fill="#7fa3cf"/><rect x="465.83" y="32" width="18.50" height="44" fill="#98a3b3"/><rect x="485.83" y="32" width="20.17" height="44" fill="#7fa3cf"/><rect x="507.50" y="32" width="16.83" height="44" fill="#98a3b3"/><rect x="525.83" y="32" width="9.33" height="44" fill="#5e8cc4"/><rect x="536.67" y="32" width="19.33" height="44" fill="#34588c"/><rect x="557.50" y="32" width="8.50" height="44" fill="#5e8cc4"/><rect x="567.50" y="32" width="31.00" height="44" fill="#34588c"/><rect x="600.00" y="32" width="14.33" height="44" fill="#5e8cc4"/><rect x="615.83" y="32" width="17.67" height="44" fill="#34588c"/><rect x="635.00" y="32" width="11.00" height="44" fill="#c08a1e"/><rect x="647.50" y="32" width="12.67" height="44" fill="#34588c"/><rect x="661.67" y="32" width="10.17" height="44" fill="#5e8cc4"/><rect x="673.33" y="32" width="14.33" height="44" fill="#34588c"/><rect x="689.17" y="32" width="9.33" height="44" fill="#5e8cc4"/><rect x="700.00" y="32" width="11.00" height="44" fill="#34588c"/><rect x="712.50" y="32" width="23.50" height="44" fill="#5e8cc4"/><rect x="737.50" y="32" width="31.83" height="44" fill="#34588c"/><rect x="770.83" y="32" width="11.00" height="44" fill="#c08a1e"/><rect x="783.33" y="32" width="12.67" height="44" fill="#34588c"/><rect x="797.50" y="32" width="10.17" height="44" fill="#c08a1e"/><rect x="809.17" y="32" width="17.67" height="44" fill="#34588c"/><rect x="828.33" y="32" width="13.50" height="44" fill="#c08a1e"/><rect x="843.33" y="32" width="10.17" height="44" fill="#34588c"/><rect x="855.00" y="32" width="7.67" height="44" fill="#c08a1e"/><rect x="864.17" y="32" width="19.33" height="44" fill="#34588c"/><rect x="885.00" y="32" width="12.67" height="44" fill="#c08a1e"/><rect x="899.17" y="32" width="15.17" height="44" fill="#34588c"/><rect x="915.83" y="32" width="6.83" height="44" fill="#5e8cc4"/><rect x="924.17" y="32" width="11.83" height="44" fill="#98a3b3"/><rect x="937.50" y="32" width="15.17" height="44" fill="#5e8cc4"/><rect x="954.17" y="32" width="27.67" height="44" fill="#98a3b3"/><rect x="983.33" y="32" width="11.00" height="44" fill="#5e8cc4"/><rect x="995.83" y="32" width="14.33" height="44" fill="#98a3b3"/><rect x="1011.67" y="32" width="10.17" height="44" fill="#5e8cc4"/><rect x="1023.33" y="32" width="26.83" height="44" fill="#34588c"/><rect x="1051.67" y="32" width="10.17" height="44" fill="#c08a1e"/><rect x="1063.33" y="32" width="19.33" height="44" fill="#34588c"/><rect x="1084.17" y="32" width="6.83" height="44" fill="#5e8cc4"/><rect x="1092.50" y="32" width="11.00" height="44" fill="#98a3b3"/><rect x="1105.00" y="32" width="11.00" height="44" fill="#7fa3cf"/><rect x="1117.50" y="32" width="11.00" height="44" fill="#98a3b3"/><rect x="1130.00" y="32" width="17.67" height="44" fill="#7fa3cf"/><rect x="1149.17" y="32" width="19.33" height="44" fill="#98a3b3"/><rect x="1170.00" y="32" width="19.33" height="44" fill="#7fa3cf"/><rect x="1190.83" y="32" width="7.67" height="44" fill="#98a3b3"/></g><g font-family="ui-monospace,'SF Mono','SFMono-Regular','JetBrains Mono',Menlo,Consolas,monospace" font-size="16" fill="#56667a"><text x="27" y="100" text-anchor="middle">00:00</text><text x="150" y="100" text-anchor="middle">03:00</text><text x="300" y="100" text-anchor="middle">06:00</text><text x="450" y="100" text-anchor="middle">09:00</text><text x="600" y="100" text-anchor="middle">12:00</text><text x="750" y="100" text-anchor="middle">15:00</text><text x="900" y="100" text-anchor="middle">18:00</text><text x="1050" y="100" text-anchor="middle">21:00</text><text x="1173" y="100" text-anchor="middle">24:00</text><rect x="0" y="127" width="12" height="12" rx="2" fill="#7fa3cf"/><text x="18" y="138">clear 15%</text><rect x="130.39999999999998" y="127" width="12" height="12" rx="2" fill="#98a3b3"/><text x="148.39999999999998" y="138">cloudy 22%</text><rect x="270.4" y="127" width="12" height="12" rx="2" fill="#5e8cc4"/><text x="288.4" y="138">drizzle 24%</text><rect x="420.0" y="127" width="12" height="12" rx="2" fill="#34588c"/><text x="438.0" y="138">rain 32%</text><rect x="540.8" y="127" width="12" height="12" rx="2" fill="#c08a1e"/><text x="558.8" y="138">storm 7%</text></g><g id="now"><rect x="506.8" y="22" width="3" height="64" rx="1.5" fill="#1f2328"/><text x="508" y="17" text-anchor="middle" fill="#1f2328" font-family="ui-monospace,'SF Mono','SFMono-Regular','JetBrains Mono',Menlo,Consolas,monospace" font-size="15">now</text></g></svg>
