<?xml version="1.0" encoding="utf-8"?>
<!-- Generator: Adobe Illustrator 26.4.1, SVG Export Plug-In . SVG Version: 6.00 Build 0)  -->
<svg version="1.1" id="Layer_1" xmlns="http://www.w3.org/2000/svg" xmlns:xlink="http://www.w3.org/1999/xlink" x="0px" y="0px"
	 viewBox="0 0 256 256" style="enable-background:new 0 0 256 256;" xml:space="preserve">
<style type="text/css">
	.st0{fill:none;}
	.st1{fill:#00234A;}
</style>
<rect class="st0" width="256" height="256"/>
<path class="st1" d="M198,45.5L45.1,197.6c-3.1,3.1-8.1,3.1-11.1,0l0,0c-3.1-3.1-3.1-8.1,0-11.1L186.9,34.3c3.1-3.1,8.1-3.1,11.1,0
	l0,0C201,37.4,201,42.4,198,45.5z"/>
<path class="st1" d="M213.8,133.3l-80.9,80.5c-3.1,3.1-8.1,3.1-11.1,0h0c-3.1-3.1-3.1-8.1,0-11.1l80.9-80.5c3.1-3.1,8.1-3.1,11.1,0
	l0,0C216.9,125.3,216.8,130.2,213.8,133.3z"/>
</svg>
