<?xml version="1.0" encoding="utf-8"?>
<!-- Generator: Adobe Illustrator 26.4.1, SVG Export Plug-In . SVG Version: 6.00 Build 0)  -->
<svg version="1.1" id="Layer_1" xmlns="http://www.w3.org/2000/svg" xmlns:xlink="http://www.w3.org/1999/xlink" x="0px" y="0px"
	 viewBox="0 0 128 128" style="enable-background:new 0 0 128 128;" xml:space="preserve">
<style type="text/css">
	.st0{fill:#FFFFFF;}
	.st1{fill:#B1B1B1;}
	.st2{fill:#747474;}
</style>
<path class="st0" d="M64,128l51.7-29.9L95.9,86.7L75.6,98.4c-0.4,0.2-0.8,0.2-1.1,0c-0.3-0.2-0.6-0.6-0.6-1V69.6
	c0-0.8,0.4-1.6,1.1-2l24.1-13.9c0.3-0.2,0.8-0.2,1.1,0c0.4,0.2,0.6,0.6,0.6,1v23.4l19.8,11.5V29.9L64,62.6L64,128z"/>
<path class="st1" d="M52.4,98.4L32.1,86.7L12.3,98.1L64,128V62.6L7.3,29.9v59.7l19.8-11.4V54.7c0-0.4,0.2-0.8,0.6-1
	c0.3-0.2,0.8-0.2,1.1,0L53,67.6c0.7,0.4,1.1,1.2,1.1,2v27.8c0,0.4-0.2,0.8-0.6,1C53.2,98.6,52.7,98.6,52.4,98.4"/>
<path class="st2" d="M69,0v22.9l20.3,11.7c0.3,0.2,0.6,0.6,0.6,1c0,0.4-0.2,0.8-0.6,1L65.1,50.5c-0.7,0.4-1.6,0.4-2.3,0L38.8,36.6
	c-0.3-0.2-0.6-0.6-0.6-1c0-0.4,0.2-0.8,0.6-1L59,22.9V0L7.3,29.9L64,62.6l56.7-32.7L69,0z"/>
<g id="brtRoF.tif">
	
		<image style="overflow:visible;" width="229" height="235" id="Layer_0" xlink:href="999D08298EF02F93.png"  transform="matrix(0.3603 0 0 0.3603 -106.7631 -40.4535)">
	</image>
</g>
</svg>
