<svg xmlns="http://www.w3.org/2000/svg" width="203.333" height="89.4" viewBox="0 0 203.333 89.4" role="img" aria-label="desktop"><title>desktop</title><style>.k{animation:k 31s ease-out infinite;animation-delay:-4.20s}@keyframes k{0%,19.355%,20.129%,100%{transform:none}19.645%{transform:translateY(1.6px)}}@media(prefers-reduced-motion:reduce){*{animation:none!important}}</style><defs><linearGradient id="pg" x1="0" y1="0" x2="0" y2="1"><stop offset="0" stop-color="#363a41"/><stop offset="1" stop-color="#2c2f35"/></linearGradient><linearGradient id="kg" x1="0" y1="0" x2="0" y2="1"><stop offset="0" stop-color="#202329"/><stop offset=".55" stop-color="#121418"/><stop offset="1" stop-color="#0b0c0f"/></linearGradient><filter id="bl" x="-20%" y="-60%" width="140%" height="220%"><feGaussianBlur stdDeviation="2.4"/></filter><filter id="sh" x="-5%" y="-10%" width="110%" height="130%"><feGaussianBlur stdDeviation=".8"/></filter></defs><path d="M0.000 0H203.333V73.400A16 16 0 0 1 187.333 89.400H0.000Z" fill="#5d636c"/><path d="M0.000 0H201.733V73.400A14.4 14.4 0 0 1 187.333 87.800H0.000Z" fill="url(#pg)"/><rect x="3.500" y="1.9000000000000004" width="191.333" height="79" rx="11.5" fill="#08090b" opacity="0.9"/><rect x="7.000" y="5.9" width="184.333" height="74" rx="9" fill="#000" opacity="0.6" filter="url(#sh)"/><g class="k"><rect x="6.500" y="4.9" width="185.333" height="73" rx="9" fill="url(#kg)" stroke="#000" stroke-opacity="1" stroke-width="1"/><path d="M15.000 6.0H183.333" stroke="#fff" stroke-opacity="0.1" stroke-width="1.4"/><text x="26.0" y="61.400000000000006" font-family="ui-monospace,'SF Mono','SFMono-Regular','JetBrains Mono',Menlo,Consolas,monospace" font-size="18" letter-spacing="0.5" textLength="79.1" lengthAdjust="spacing" fill="#9fc3ff" opacity=".55" filter="url(#bl)">desktop</text><g transform="translate(164.3 27.4) scale(1.0)" fill="none" stroke="#9fc3ff" stroke-width="2.30" stroke-linecap="round" stroke-linejoin="round" opacity=".5" filter="url(#bl)"><path d="M-2.5 -2.5V-5A2.5 2.5 0 1 0 -5 -2.5H5A2.5 2.5 0 1 0 2.5 -5V5A2.5 2.5 0 1 0 5 2.5H-5A2.5 2.5 0 1 0 -2.5 5Z"/></g><g transform="translate(164.3 27.4) scale(1.0)" fill="none" stroke="#dbe2ea" stroke-width="2.30" stroke-linecap="round" stroke-linejoin="round"><path d="M-2.5 -2.5V-5A2.5 2.5 0 1 0 -5 -2.5H5A2.5 2.5 0 1 0 2.5 -5V5A2.5 2.5 0 1 0 5 2.5H-5A2.5 2.5 0 1 0 -2.5 5Z"/></g><text x="26.0" y="61.400000000000006" font-family="ui-monospace,'SF Mono','SFMono-Regular','JetBrains Mono',Menlo,Consolas,monospace" font-size="18" letter-spacing="0.5" textLength="79.1" lengthAdjust="spacing" fill="#dbe2ea">desktop</text></g></svg>
