<svg xmlns="http://www.w3.org/2000/svg" width="132" height="46" viewBox="0 0 132 46" role="img" aria-label="email"><title>email</title><g transform="translate(29.96 31.23) scale(0.22000)"><path d="M24.13 1.99Q23.99 0.28 22.32 -0.57Q20.65 -1.42 19.52 -2.27Q11.36 -7.81 7.98 -15.79Q4.61 -23.78 4.19 -32.72Q3.34 -52.95 15.12 -63.52Q19.3 -67.28 24.77 -69.66Q30.23 -72.04 35.98 -73.53Q37.76 -73.88 38.61 -71.75L48.83 -47.76Q49.54 -45.85 48.33 -45.35H48.19L19.09 -34.07Q18.24 -33.64 18.38 -32.72Q21.86 -16.96 30.02 -12.53Q38.18 -8.09 46.27 -11.21Q47.69 -11.85 48.08 -11Q48.47 -10.15 47.55 -9.72Q41.8 -6.81 36.59 -3.76Q31.37 -0.71 27.25 2.63Q26.61 3.05 25.37 2.91Q24.13 2.77 24.13 1.99ZM17.53 -38.11Q17.6 -37.54 18.03 -37.22Q18.45 -36.91 19.09 -37.19L34.21 -42.87Q35.27 -43.29 34.85 -44.36L26.19 -65.58Q25.55 -67.14 23.63 -66Q19.52 -63.59 18.03 -55Q16.54 -46.42 17.53 -38.11Z M85.69 -55.78 85.62 -25.69Q85.55 -14.12 89.88 -12.56Q90.38 -12.14 90.38 -11.57Q90.38 -11 89.88 -10.65Q83.64 -6.03 79.52 2.06Q79.09 2.7 78.42 2.7Q77.75 2.7 77.39 2.06Q73.27 -5.96 66.6 -10.57Q66.18 -11 66.18 -11.57Q66.18 -12.14 66.67 -12.56Q71.43 -14.12 71.29 -25.69V-50.75Q71.29 -57.98 68.59 -59.62Q65.47 -61.67 63.48 -58.13Q62.7 -56.64 61.67 -57.31Q60.64 -57.98 61.78 -59.9Q63.84 -63.17 65.72 -66.57Q67.6 -69.98 69.58 -73.39Q70.72 -75.44 72.78 -74.24L72.85 -74.17Q83.07 -69.13 85.2 -61.67Q85.41 -60.97 85.98 -60.89Q86.55 -60.68 87.11 -61.04Q90.59 -64.02 94.46 -67.46Q98.33 -70.9 99.82 -73.39Q100.95 -75.37 102.94 -74.24Q113.16 -69.2 115.36 -61.96Q115.65 -60.97 116.21 -60.97Q116.78 -60.97 117.21 -61.39Q121.04 -64.51 124.77 -67.89Q128.49 -71.26 129.98 -74.24Q130.76 -76.08 132.54 -74.17Q136.79 -69.69 139.85 -67.07Q142.9 -64.44 150.14 -63.17Q151.2 -62.95 151.27 -62.24Q151.27 -61.04 150.49 -60.97Q148.65 -60.26 147.23 -58.52Q145.81 -56.78 145.81 -52.73V-21.86Q145.81 -14.62 148.51 -12.99Q151.63 -11.14 153.62 -14.55Q154.33 -15.9 155.35 -15.15Q156.38 -14.41 155.39 -12.7Q153.26 -9.37 151.34 -6Q149.43 -2.63 147.51 0.71Q146.23 2.7 144.32 1.63Q137.86 -1.49 134.63 -6.03Q131.4 -10.57 131.4 -16.89L131.47 -54.08Q131.47 -56.21 130.34 -56.99L124.37 -61.96Q123.52 -62.53 122.67 -62.03Q118.06 -58.48 116.99 -57.59Q115.93 -56.71 115.93 -55.64L115.86 -25.69Q115.86 -14.05 120.19 -12.56Q120.68 -12.07 120.68 -11.6Q120.68 -11.14 120.19 -10.65Q113.94 -6.17 109.75 2.06Q109.33 2.7 108.62 2.7Q107.91 2.7 107.7 2.06Q103.65 -5.82 96.91 -10.57Q96.41 -10.93 96.41 -11.5Q96.41 -12.07 96.91 -12.56Q101.95 -14.12 101.59 -25.69L101.52 -50.75Q101.52 -56 98.82 -59.62Q95.49 -64.02 92.08 -61.32L86.12 -56.78L85.84 -56.35Z M202.33 -10.01Q198.71 -7.24 194.38 -3.94Q190.06 -0.64 186.36 2.13Q185.09 3.12 184.34 2.98Q183.6 2.84 183.74 1.7Q183.74 0.21 179.34 -3.97Q167.77 -14.83 168.2 -32.22Q168.62 -47.13 182.04 -57.42Q186.15 -60.54 189.74 -64.02Q193.32 -67.49 196.09 -72.46Q197.22 -74.66 199.21 -72.6Q210 -60.4 220.79 -58.2Q224.19 -57.56 221.5 -55.5Q218.16 -53.09 217.88 -49.54V-49.4L218.09 -16.96Q218.09 -13.7 220.47 -12.49Q222.84 -11.28 225.61 -14.34Q226.68 -15.54 227.64 -14.94Q228.59 -14.34 227.67 -12.78Q225.12 -8.94 222.74 -5.25Q220.36 -1.56 218.73 2.41L218.66 2.48Q217.66 4.12 216.24 2.48Q215.46 1.63 214.4 1.35Q206.31 -0.43 204.18 -9.37Q204.04 -9.79 203.47 -10.22Q202.83 -10.29 202.33 -10.01ZM203.11 -51.81Q198.71 -53.02 192.82 -58.62Q189.98 -62.03 188.28 -59.26Q180.76 -48.05 182.39 -34.49Q184.66 -15.12 196.02 -10.57Q196.09 -10.57 196.16 -10.5Q199.07 -9.58 203.19 -13.98Q203.47 -14.41 203.47 -14.76Q203.4 -15.83 203.4 -18.1L204.04 -50.67Q204.04 -51.53 203.11 -51.81Z M247.43 -16.68 246.94 -55.57Q246.94 -56.92 246.51 -57.77Q244.81 -60.54 243.6 -59.12L240.76 -56.21Q239.63 -54.93 238.6 -55.93Q237.57 -56.92 238.92 -58.69Q242.04 -62.6 244.52 -66.5Q247.01 -70.4 249.63 -74.24Q250.77 -75.59 252.26 -74.17Q255.24 -70.55 258.08 -67.81Q260.92 -65.08 266.17 -62.03Q267.66 -61.46 267.48 -60.68Q267.3 -59.9 266.52 -59.83Q264.68 -59.12 263.26 -57.38Q261.84 -55.64 261.84 -51.6V-21.58Q261.84 -14.34 264.54 -12.7Q267.66 -10.86 269.65 -14.27Q270.36 -15.61 271.39 -14.87Q272.41 -14.12 271.35 -12.42Q269.22 -9.08 267.38 -5.71Q265.53 -2.34 263.61 0.99Q262.27 2.98 260.28 1.85Q253.89 -1.21 250.66 -5.61Q247.43 -10.01 247.43 -16.68ZM257.72 -100.92Q265.6 -100.92 264.89 -93.33Q264.47 -89.5 260.1 -85.63Q255.74 -81.76 253.18 -81.83Q250.63 -81.83 249.28 -85.88Q247.93 -89.92 248.21 -93.33Q248.43 -96.59 251.37 -98.76Q254.32 -100.92 257.72 -100.92Z M283.45 -93.26Q282.52 -94.25 283.41 -95.17Q284.3 -96.1 285.65 -94.82Q287.28 -92.83 289.02 -90.56Q290.76 -88.29 291.96 -85.88Q292.32 -85.17 292.99 -85.17Q293.67 -85.17 294.02 -85.73Q298.21 -92.83 305.66 -97.2Q313.11 -101.56 321.77 -101.28Q323.4 -101.21 323.47 -99.89Q323.55 -98.58 321.77 -98.58Q314.75 -98.58 310.52 -94.54Q306.3 -90.49 306.3 -79.77L306.23 -18.31Q306.23 -16.04 307.29 -15.4L312.4 -12.49Q314.18 -11.85 317.3 -15.9Q318.08 -16.96 319.22 -16.36Q320.35 -15.76 319.15 -14.48Q311.69 -6.17 307.72 1.85Q306.87 3.34 305.16 1.85Q301.69 -2.63 298 -5.22Q294.31 -7.81 287.63 -9.16Q286.5 -9.3 286.46 -10.18Q286.43 -11.07 287.21 -11.43Q288.98 -12.07 290.44 -13.8Q291.89 -15.54 291.89 -19.59L291.82 -67.28Q291.82 -77.5 289.62 -83.39Q287.42 -89.28 283.45 -93.26Z" fill="#7f90a8"/></g></svg>
